<svg width="1200" height="630" xmlns="http://www.w3.org/2000/svg">

  <!-- Dark background -->
  <rect width="1200" height="630" fill="#03040a"/>

  <!-- Subtle grid -->
  <g opacity="0.05">
    <path d="M0 50h1200M0 100h1200M0 150h1200M0 200h1200M0 250h1200M0 300h1200M0 350h1200M0 400h1200M0 450h1200M0 500h1200M0 550h1200" stroke="#ffffff"/>
  </g>

  <!-- Terminal header -->
  <rect x="80" y="70" width="1040" height="60" rx="12" fill="#111a2e"/>
  <circle cx="110" cy="100" r="8" fill="#ff5f56"/>
  <circle cx="140" cy="100" r="8" fill="#ffbd2e"/>
  <circle cx="170" cy="100" r="8" fill="#27c93f"/>

  <!-- Title -->
  <text x="100" y="230" font-family="Inter, sans-serif" font-size="72" font-weight="700" fill="#ffffff">
    Duck Framework
  </text>

  <text x="100" y="310" font-family="Inter, sans-serif" font-size="72" font-weight="700" fill="#60a5fa">
    Documentation
  </text>

  <!-- Subtitle -->
  <text x="100" y="380" font-family="Inter, sans-serif" font-size="32" fill="#9fb3c8">
    Guides • API • Tutorials • Examples
  </text>

  <!-- Code snippet -->
  <rect x="680" y="200" width="380" height="220" rx="16" fill="#111a2e"/>

  <text x="700" y="250" font-family="monospace" font-size="24" fill="#8bd5ff">
    from duck import App
  </text>

  <text x="700" y="290" font-family="monospace" font-size="24" fill="#c6d0f5">
    app = App()
  </text>

  <text x="700" y="330" font-family="monospace" font-size="24" fill="#a6e3a1">
    app.run()
  </text>

  <!-- Call-to-action button -->
  <rect x="100" y="440" width="320" height="70" rx="14" fill="#2563eb"/>
  
  <!-- CTA text -->
  <text x="160" y="485" font-family="Inter, sans-serif" font-size="32" font-weight="600" fill="#ffffff">
    Get Started →
  </text>

</svg>
